<?xml version="1.0" encoding="UTF-8" standalone="no"?><!DOCTYPE svg PUBLIC "-//W3C//DTD SVG 1.1//EN" "http://www.w3.org/Graphics/SVG/1.1/DTD/svg11.dtd"><svg width="16" height="16" viewBox="0 0 16 16" version="1.1" xmlns="http://www.w3.org/2000/svg" xmlns:xlink="http://www.w3.org/1999/xlink" xml:space="preserve" xmlns:serif="http://www.serif.com/" style="fill-rule:evenodd;clip-rule:evenodd;stroke-linejoin:round;stroke-miterlimit:2;"><g><path d="M9.672,7.836c0.039,0 0.058,0.012 0.058,0.036c0,0.024 -0.019,0.036 -0.058,0.036l-1.839,0.057l-0.869,1.57c-0.038,0.066 -0.082,0.112 -0.13,0.135c-0.048,0.024 -0.09,0.029 -0.123,0.015c-0.034,-0.015 -0.058,-0.043 -0.073,-0.086c-0.014,-0.043 -0.002,-0.097 0.037,-0.164l0.941,-1.456l-1.405,0.043c-0.087,0.009 -0.152,-0 -0.195,-0.029c-0.044,-0.028 -0.066,-0.061 -0.066,-0.1c0,-0.038 0.02,-0.073 0.058,-0.107c0.039,-0.033 0.087,-0.05 0.145,-0.05l1.593,0.043l0.811,-1.27c0.019,-0.038 0.041,-0.05 0.065,-0.036c0.024,0.015 0.027,0.036 0.007,0.064l-0.695,1.242l1.738,0.057Z" style="fill-rule:nonzero;"/><path d="M13.608,1.321c-0,0.033 -0.01,0.053 -0.031,0.061c-0.02,0.008 -0.034,-0.008 -0.043,-0.049c-0.04,-0.334 -0.177,-0.56 -0.409,-0.678c-0.232,-0.118 -0.527,-0.173 -0.886,-0.165c-0.448,0.009 -0.936,0.084 -1.466,0.226c-0.529,0.143 -1.069,0.318 -1.619,0.526c-0.549,0.207 -1.089,0.431 -1.618,0.672c-0.53,0.24 -1.014,0.458 -1.454,0.653c-0.179,0.497 -0.426,1.084 -0.739,1.76c-0.314,0.676 -0.658,1.384 -1.033,2.126c0.35,-0.066 0.697,-0.119 1.039,-0.159c0.342,-0.041 0.696,-0.082 1.063,-0.122c0.04,-0.009 0.059,-0 0.055,0.024c-0.005,0.024 -0.027,0.041 -0.068,0.049c-0.391,0.041 -0.759,0.083 -1.105,0.128c-0.346,0.045 -0.691,0.108 -1.033,0.189c-0.211,0.416 -0.423,0.827 -0.635,1.234c-0.212,0.408 -0.419,0.807 -0.623,1.198c-0.196,0.456 -0.395,0.888 -0.599,1.295c-0.203,0.407 -0.391,0.77 -0.562,1.087c-0.171,0.318 -0.319,0.581 -0.446,0.788c-0.126,0.208 -0.214,0.34 -0.262,0.397c-0.017,0.017 -0.037,0.021 -0.061,0.013l-0,-0.013c-0,-0.016 0.004,-0.028 0.012,-0.036l-0,-0.013c0.032,-0.073 0.104,-0.213 0.214,-0.421c0.109,-0.208 0.246,-0.466 0.409,-0.776c0.163,-0.309 0.35,-0.664 0.562,-1.063c0.212,-0.399 0.436,-0.827 0.672,-1.283c0.114,-0.26 0.226,-0.527 0.336,-0.8c0.11,-0.273 0.218,-0.548 0.324,-0.825l0.232,-0.684c-0.245,0.065 -0.491,0.143 -0.739,0.232c-0.249,0.09 -0.512,0.2 -0.789,0.33c-0.073,0.041 -0.112,0.041 -0.116,0c-0.004,-0.04 0.027,-0.077 0.092,-0.11c0.277,-0.138 0.546,-0.252 0.806,-0.342c0.261,-0.089 0.522,-0.167 0.782,-0.232c0.122,-0.399 0.224,-0.788 0.306,-1.167c0.081,-0.378 0.13,-0.731 0.146,-1.057c0.009,-0.171 0.006,-0.333 -0.006,-0.488c-0.012,-0.155 -0.038,-0.302 -0.079,-0.44c-0.538,0.236 -1.022,0.426 -1.454,0.568c-0.432,0.143 -0.778,0.214 -1.039,0.214c-0.203,-0 -0.36,-0.027 -0.47,-0.08c-0.11,-0.053 -0.185,-0.124 -0.226,-0.213c-0.049,-0.098 -0.053,-0.212 -0.012,-0.342c0.032,-0.114 0.102,-0.237 0.208,-0.367c0.138,-0.171 0.323,-0.326 0.555,-0.464c0.233,-0.139 0.491,-0.228 0.776,-0.269c0.212,-0.033 0.401,-0.041 0.568,-0.024c0.167,0.016 0.32,0.048 0.459,0.097c0.342,0.139 0.57,0.403 0.684,0.794l1.527,-0.684c0.09,-0.26 0.142,-0.48 0.159,-0.66c0.016,-0.179 0.024,-0.325 0.024,-0.439c0,-0.074 0.019,-0.129 0.055,-0.165c0.037,-0.037 0.075,-0.061 0.116,-0.074c0.041,-0.012 0.08,-0.008 0.116,0.013c0.037,0.02 0.055,0.051 0.055,0.091c0,0.114 -0.016,0.263 -0.049,0.446c-0.032,0.183 -0.093,0.405 -0.183,0.666c0.196,-0.09 0.442,-0.206 0.739,-0.348c0.298,-0.143 0.623,-0.293 0.978,-0.452c0.354,-0.159 0.729,-0.318 1.124,-0.477c0.395,-0.159 0.788,-0.303 1.179,-0.433c0.391,-0.131 0.769,-0.237 1.136,-0.318c0.366,-0.082 0.7,-0.122 1.002,-0.122c0.374,-0 0.682,0.073 0.922,0.22c0.24,0.146 0.381,0.399 0.422,0.757Zm-11.851,2.774c0.26,-0 0.602,-0.072 1.026,-0.214c0.424,-0.143 0.904,-0.328 1.442,-0.556c-0.066,-0.179 -0.151,-0.332 -0.257,-0.458c-0.106,-0.127 -0.244,-0.222 -0.415,-0.287c-0.253,-0.106 -0.583,-0.131 -0.99,-0.074c-0.269,0.041 -0.513,0.124 -0.733,0.251c-0.22,0.126 -0.395,0.271 -0.525,0.433c-0.049,0.066 -0.09,0.125 -0.123,0.178c-0.032,0.053 -0.057,0.108 -0.073,0.165c-0.041,0.114 -0.041,0.215 0,0.305c0.082,0.171 0.297,0.257 0.648,0.257Zm2.431,2.382c0.342,-0.717 0.65,-1.403 0.922,-2.059c0.273,-0.655 0.499,-1.228 0.678,-1.716c-0.285,0.13 -0.537,0.244 -0.757,0.342c-0.22,0.098 -0.46,0.203 -0.721,0.317c0.073,0.253 0.102,0.567 0.086,0.941c-0.017,0.326 -0.065,0.676 -0.147,1.051c-0.081,0.375 -0.183,0.766 -0.305,1.173c0.04,-0.016 0.081,-0.027 0.122,-0.031c0.041,-0.004 0.081,-0.01 0.122,-0.018Zm-0.867,1.759c0.138,-0.268 0.276,-0.541 0.415,-0.818c0.138,-0.277 0.273,-0.554 0.403,-0.831l-0.232,0.061c-0.041,0.114 -0.081,0.23 -0.122,0.348c-0.041,0.118 -0.082,0.238 -0.122,0.361c-0.057,0.146 -0.112,0.293 -0.165,0.439c-0.053,0.147 -0.112,0.294 -0.177,0.44Zm-2.053,4.02c0.122,-0.204 0.283,-0.491 0.483,-0.861c0.199,-0.371 0.417,-0.793 0.653,-1.265c-0.114,0.228 -0.226,0.442 -0.336,0.641c-0.11,0.2 -0.21,0.389 -0.299,0.569l-0.501,0.916Z" style="fill-rule:nonzero;"/><path d="M13.775,3.787c0.064,-0.009 0.094,0 0.089,0.027c-0.004,0.028 -0.034,0.046 -0.089,0.055l-1.147,0.246c0.054,0.155 0.047,0.412 -0.021,0.772c-0.068,0.36 -0.178,0.781 -0.328,1.264c-0.15,0.483 -0.335,1.011 -0.553,1.585c-0.219,0.574 -0.451,1.157 -0.697,1.749c-0.246,0.592 -0.492,1.175 -0.738,1.749c-0.246,0.574 -0.476,1.102 -0.69,1.585c-0.214,0.483 -0.403,0.9 -0.567,1.251c-0.164,0.35 -0.278,0.599 -0.342,0.744l1.011,-0.177c0.064,-0.009 0.094,-0 0.089,0.027c-0.004,0.027 -0.034,0.046 -0.089,0.055l-1.079,0.232c-0.055,0.137 -0.121,0.21 -0.198,0.219c-0.078,0.009 -0.121,-0.037 -0.13,-0.137l-1.162,0.232c-0.082,0.018 -0.118,-0.004 -0.109,-0.068c0.009,-0.064 0.05,-0.1 0.123,-0.109l1.189,-0.205c0.036,-0.082 0.13,-0.283 0.28,-0.602c0.15,-0.318 0.335,-0.717 0.553,-1.195c0.219,-0.478 0.465,-1.011 0.738,-1.599c0.274,-0.588 0.545,-1.191 0.813,-1.811c0.269,-0.619 0.526,-1.232 0.772,-1.837c0.246,-0.606 0.458,-1.162 0.636,-1.668c0.177,-0.505 0.307,-0.938 0.389,-1.298c0.082,-0.359 0.096,-0.608 0.041,-0.744l-1.353,0.287c-0.082,0.018 -0.118,-0.005 -0.109,-0.069c0.009,-0.063 0.05,-0.1 0.123,-0.109l1.216,-0.219l-0.027,0c-0.027,0 -0.036,-0.013 -0.027,-0.041c0.009,-0.027 0.027,-0.041 0.054,-0.041c0.064,0.019 0.11,0.041 0.137,0.069l1.202,-0.219Z" style="fill-rule:nonzero;"/></g></svg>